<?xml version="1.0" encoding="UTF-8"?>
<svg xmlns="http://www.w3.org/2000/svg" xmlns:xlink="http://www.w3.org/1999/xlink" width="80px" height="px" viewBox="0 0 80 80" version="1.1">
<g id="surface1">
<path style=" stroke:none;fill-rule:nonzero;fill:rgb(98.431373%,73.72549%,1.568627%);fill-opacity:1;" d="M 2.730469 68.527344 L 38.730469 11.421875 L 61.078125 11.421875 L 61.078125 19.367188 L 30.042969 68.527344 "/>
<path style=" stroke:none;fill-rule:nonzero;fill:rgb(10.196078%,45.098039%,90.980392%);fill-opacity:1;" d="M 61.078125 68.527344 L 38.734375 68.527344 L 38.734375 11.421875 L 61.078125 11.421875 Z M 61.078125 68.527344 "/>
<path style=" stroke:none;fill-rule:nonzero;fill:rgb(20.392157%,65.882353%,32.54902%);fill-opacity:1;" d="M 77.21875 52.390625 C 77.226562 56.671875 75.527344 60.78125 72.5 63.808594 C 69.472656 66.835938 65.363281 68.535156 61.078125 68.527344 L 61.078125 36.25 C 65.363281 36.242188 69.472656 37.9375 72.5 40.96875 C 75.53125 43.996094 77.226562 48.105469 77.21875 52.390625 Z M 77.21875 52.390625 "/>
<path style=" stroke:none;fill-rule:nonzero;fill:rgb(5.098039%,39.607843%,17.647059%);fill-opacity:1;" d="M 61.078125 68.527344 C 52.140625 68.527344 44.941406 61.328125 44.941406 52.390625 C 44.941406 43.449219 52.140625 36.25 61.078125 36.25 Z M 61.078125 68.527344 "/>
<path style=" stroke:none;fill-rule:nonzero;fill:rgb(10.196078%,45.098039%,90.980392%);fill-opacity:1;" d="M 73.492188 23.835938 C 73.492188 30.785156 68.03125 36.25 61.078125 36.25 L 61.078125 11.421875 C 68.03125 11.421875 73.492188 16.882812 73.492188 23.835938 Z M 73.492188 23.835938 "/>
<path style=" stroke:none;fill-rule:nonzero;fill:rgb(9.019608%,30.588235%,65.098039%);fill-opacity:1;" d="M 61.078125 36.25 C 54.125 36.25 48.664062 30.785156 48.664062 23.835938 C 48.664062 16.882812 54.125 11.421875 61.078125 11.421875 Z M 61.078125 36.25 "/>
<path style=" stroke:none;fill-rule:nonzero;fill:rgb(91.764706%,26.27451%,20.784314%);fill-opacity:1;" d="M 3.972656 22.59375 C 3.972656 16.386719 8.9375 11.421875 15.144531 11.421875 C 21.351562 11.421875 26.316406 16.386719 26.316406 22.59375 C 26.316406 28.800781 21.351562 33.765625 15.144531 33.765625 C 8.9375 33.765625 3.972656 28.800781 3.972656 22.59375 Z M 3.972656 22.59375 "/>
</g>
</svg>
